<?xml version="1.0" encoding="utf-8"?>
<!-- Generator: Adobe Illustrator 24.2.3, SVG Export Plug-In . SVG Version: 6.00 Build 0)  -->
<svg version="1.1" id="Réteg_1" xmlns="http://www.w3.org/2000/svg" xmlns:xlink="http://www.w3.org/1999/xlink" x="0px" y="0px"
	 viewBox="0 0 1366 768" style="enable-background:new 0 0 1366 768;" xml:space="preserve">
<style type="text/css">
	.st0{fill-rule:evenodd;clip-rule:evenodd;fill:#105D83;}
	.st1{fill-rule:evenodd;clip-rule:evenodd;fill:#55575B;}
</style>
<path class="st0" d="M600.1,451.6c2,2.2,5.2,2,7.2,1.4c0.7-1.9,0.1-4.9-3.5-5.1c0.8,0.3,1.9,0.8,2.5,1.5c0.6,0.7,0.9,1.7,0.6,2.7
	c0,0.1-0.1,0.1-0.2,0.1C605.3,452.7,602.6,452.5,600.1,451.6 M599.2,453.3c2.2,2.6,8.7,2.9,12.4,0.9c3.4-1.9,3-4.2,4-6.8
	c1.6-4.3,10-10.8,13.2-12.1c-7.2,6.4-11.5,8.8-13.3,16.2C613.6,459,598.6,459.2,599.2,453.3z M546.8,438.3c1.9,6,7.6,10.5,17.4,10.6
	c0.3,0,1-0.1,1.5-0.2l0.3-0.2c-1.2-6,9.7-15.9,14.8-19.7c1.7-1.3-4.5,4.1-9.1,9.6c-5.3,6.4-5,10.5-5,10.5c1.5,0.5,6.9,1.6,7.3,1
	c0.8-1.4,1.9-4.4-1.3-5.8c3.7,1.1,3.1,3,1.7,6.6c-0.1,0.3-6.3-0.3-7.8-1.1c0.5,6.4,12,8.1,15.7,2.3c0.4-0.7,1.2-1.8,1.4-2.6v0l0,0
	c0.4-1.9,0.5-3.9,1.1-5.6c3.5-10.2,12.5-13.7,10.9-13.1c-1,0.4-6.2,5.9-8.8,10.4c-1.6,2.9-1.3,6.3-1.9,9.2c1.6,0.9,3.3,1.1,5.5,0.3
	c0.9-0.3,0.8-2.8,0.2-4.2s-1.9-1.5-2.1-1.8c-0.4-0.6,4.4,1.1,2.9,6.5c0,0-0.6,0.4-1,0.5c-1.8,0.4-4.3,0.3-5.8-0.6
	c-0.3,0.7-0.7,1.5-1.4,2.3c2.3,2.5,8.6,3.3,12.2,1.2c0.9-0.5,1.5-1.1,2-1.7c1.5-2,1.8-4.5,2.4-6.3c2-5.8,7.4-10.2,7.4-10.2l0,0
	c0,0,0.1,0.1,0.1,0.2c0,0.2-0.3,0.4-0.3,0.5c-5.2,6.1-7,11.2-7.1,12.4c0,0.2-0.1,1.1-0.6,2.3c-0.8,1.9-2.1,2.9-2.6,3.3
	c-3.2,2.7-8.9,2.9-11.8,1.1c-0.5-0.3-2.1-1.1-2.3-2.3c-0.5,0.5-1,0.9-2,1.5c-3.7,2-9.8,2.9-13.1-0.5c-0.6-0.6-1.6-1.8-2.1-4
	c-0.5,0.1-1.1,0.2-1.3,0.2C554.1,451.5,546.9,447.1,546.8,438.3z M593.5,404.2c-0.4-2.4-9.5,7.3-13.1,11.1c-8,8.6-13,10.1-19.6,12.5
	l-13.7,5.2c4.4,0.2,9.8,2.6,11.7,4.6c0.9,0.9,7.3-3.1,5-5.3c-0.4-0.4-1.7-1-1.7-1c3.8,2.1-1.9,5.7-2.3,5.4c-2.7-1.9-5.8-3.3-7.8-4
	c1.5-0.5,3.6-1.3,6.3-2.3c7.1-2.5,8.2-2.7,10.1-3.4c3.6-1.5,5.2-3.1,13.8-11.5C585.3,412.1,588.3,408.5,593.5,404.2z M702.9,378.3
	c20.9-11.4,22-18.6,22-18.6c-1.6,3.7,0.6,14.1-1.5,25.3c-1.7,8.6-5.4,16.2-13.1,20c-4,2-11.2,4.6-17,7c-5,2-31.7,22-35.1,24.5
	c-6.1,4.4-8.2,1.8-21.7,12.5c-6.4,5.1-14.1,9.9-20.9,3.1c0.1,0.8,0.4,2,1.3,2.8c4.8,4.1,12.4,1.5,18.8-3.2c8.2-6,5.7-5.4,11.1-7.9
	c3.9-1.8,7.3-2.7,10.8-4.4c0.6-0.3,7-4,7-4c1.8-1.2,5.8-4.1,7.5-5.1c6-3.6,16.1-13.2,24-16.4c16.6-6.7,20-8,26.7-15.9
	c7.5-8.8,1.9-28.3,4.4-37c0.4-1.3,1.6-3.6,2.3-4.8l0,0l0,0l1.6-2.2l0,0l0.8-1.1c8.4-9.9,61.5-78.7,87-147.7h-5.9
	c-17,48.4-45.7,96.1-81.5,143.7c4.5-9.2,4.6-17.1,9.6-20.8C727.1,337.9,734.2,356,702.9,378.3z M684.4,217.1
	c-8.3,8.5,18.1,39.5-18.9,56.8C695.5,256,671.9,218,684.4,217.1z M639.9,205c-3,17.3-13.6,37.7-17.4,104.6
	c-0.9,15-17.8,40.5-22.5,56.9c-2.4,8.4-1.9,6.9-3,12.4c2.9-4.7,5.9-10.3,7.6-17c3.4-13.4,19.1-37.8,20.2-51.9
	c1.2-16.2,2.6-36.6,4.7-45.8c6.4-28.6,6.7-33,13.6-59.2L639.9,205L639.9,205z M692.3,309.8c-0.8,0.4-1.5,0.5-2,0.6
	c-12,2.4-21.7,5.8-23.7,20.2c-0.6,4.8-1.4,16.5-1.7,20.6C679.7,338.5,683.7,323.2,692.3,309.8z M593.5,404.2L593.5,404.2
	C593.2,403.9,593.5,404.2,593.5,404.2c-0.7-3.3-0.6-6.1,0-8.7c0-0.8,0.1-1.8,0.1-3.1c-0.2-10.3,7.2-16.8,13.3-30.7
	c-1.7,8.9-12.6,24-11.8,29.8c3.1-6.1,8.9-11.5,13-20.9c-0.5,8.5-17.3,25.8-13.5,30.7c0.4-0.9,1.8-3,2.4-3.5
	c4.9-4.5,9.9-8.5,13.6-18.4c-0.6,4.8-2.3,7.9-4.9,11.7c-2.7,4.1-8.5,7.6-10.4,12.5c0,0-2.2,5-2.3,5.5c-0.2,0.8-0.9,3-1,3.7
	c-0.7,5.6,6.2,6.1,7.1,6c0.8,0-2.9-3.4-3.7-6.1c0-0.2-0.8-2.3-0.7-4.1c0.1-1,0.7-2.3,1.2-2.8c0.5-0.4,0.4-0.5,1.1-0.8
	c10.1-7.9,20.8-13.4,25.3-25.2c-2.3,6.2-4.9,10.6-9,14.7c3.8,0.4,9.9,2.1,12.7,4c-3.7-1.3-10.1-2.6-13.9-2.8c-7,5-8.9,6.8-13.9,9.9
	c1.9-1.2,10,0.9,11.8,2.8c0.4,0.4,7.5-4.6,3.1-7.5c5.6,2-0.8,8.7-3.7,8.7c-0.6,0-3.8-3.4-11.9-3.4c-0.6-0.1-1.1,0.3-1.2,0.3
	c-0.6,0.4-1,1.4-0.6,3.5c0.4,1.3,1.8,3.4,2.2,4.1c3.2,3.8,5.5,4.3,7.4,5c10.7,3.7,24.7-3.8,28.3-11.5c0.5-1.1,1.6-3.8,4.1-6.6
	c1.2-1.3,2.8-2.4,5.6-4.1c33.5-21.2,10.8-58.6,24-78.9c5.9-9.1,15.6-9,21.2-11.3c14.1-5.7,21.1-27.5,17-42.8
	c-1.8-6.7-5.1-13.1-6.3-19.9c-2.6-14.2,2.3-27.8,6.8-39.1h5c-8.4,17.6-9.5,28.6-8.8,39.3c0.6,8.7,4.4,12.5,7.3,20.5
	c2.3,6.4,1.9,5.2,2.1,7.3c7.2-23.8,9.8-31.3,16.7-67.1h5.5c-9.3,35-8.4,41.3-20.5,72.1c-2.3,7.7-14,26.4-16.5,30.9
	c-10.8,19-16.2,33.7-31.5,45.7c-0.9,23.6,0.7,30.4-22.4,45c-4.7,3-4.9,4.6-7.3,9c-5,8.9-23.6,21-35.1,12.1c0.5,0.4,0,0,0,0
	c-3.2,2.1-12-2.1-9.2-9.8 M617.3,450.8c1.7,1.8,4.4,1.6,6.1,1c0.5-1.6,0-4.1-3.1-4.3c0.7,0.3,1.6,0.6,2.2,1.3
	c0.5,0.6,0.8,1.4,0.6,2.3c0,0.1-0.1,0.1-0.2,0.1C621.7,451.7,619.4,451.6,617.3,450.8z M592,412.8c0,0.1,0,0.3,0,0.4
	c0,0.1,0,0.3,0,0.5c0.4,0.1,0.8,0.1,1.3,0.2c1.2,0.1,2,0,2.5-0.2c0-0.1-0.1-0.2-0.1-0.3c0-0.1-0.1-0.2-0.1-0.2c-0.5,0.1-1,0.1-2,0
	C592.8,413.1,592.4,412.9,592,412.8z M593.5,407.9c0.5,0.2,0.5,0.1,0.6,0.2c0.3,0.1,0.3,0.1,0.7,0.4c0-0.1,0-0.1,0-0.2
	c0-0.1,0-0.1,0-0.2c-0.2-0.1-0.3-0.1-0.6-0.2c-0.3-0.1-0.3-0.1-0.5-0.1"/>
<path class="st1" d="M536.7,506.1c0-0.8,0.3-1.5,0.9-2.1c0.6-0.6,1.3-0.9,2.2-0.9s1.5,0.3,2.2,0.9c0.6,0.6,0.9,1.3,0.9,2.1
	c0,0.9-0.3,1.6-0.9,2.2c-0.6,0.6-1.3,0.9-2.2,0.9s-1.6-0.3-2.2-0.9C537,507.7,536.7,507,536.7,506.1 M548.4,506.1
	c0-0.8,0.3-1.5,0.9-2.1c0.6-0.6,1.3-0.9,2.1-0.9c0.8,0,1.6,0.3,2.2,0.9c0.6,0.6,0.9,1.3,0.9,2.1c0,0.9-0.3,1.6-0.9,2.2
	c-0.6,0.6-1.3,0.9-2.2,0.9c-0.8,0-1.6-0.3-2.2-0.9C548.7,507.7,548.4,507,548.4,506.1z M535.8,516.3h-3.6v-1.3h1.4
	c1.5,0,2.7,0,3.8-0.1c1.1-0.1,2.1-0.2,2.9-0.4v18.3c0,2.1,0.3,3.5,0.9,4.1c0.6,0.6,1.8,0.9,3.5,0.9c2,0,3.7-0.8,5.1-2.4
	c1.4-1.6,2.1-3.7,2.1-6.2v-12.9h-3.7v-1.3h1.1c1.2,0,2.5-0.1,3.8-0.2s2.5-0.2,3.7-0.4l0,23.3h3.3v1.5h-1.3c-1.4,0-2.6,0-3.7,0.1
	c-1.1,0.1-2.1,0.2-3.1,0.4v-5.3c-0.9,1.7-2.1,3-3.7,3.9c-1.6,0.9-3.3,1.4-5.2,1.4c-2.6,0-4.4-0.5-5.5-1.6c-1.1-1.1-1.7-2.9-1.7-5.4
	L535.8,516.3L535.8,516.3z M568.8,539.1v-1.5h4.6v-38.8h-4.8v-1.2c1.7,0,3.3-0.1,4.9-0.2s3.3-0.2,4.8-0.4v40.7h4.8v1.5L568.8,539.1
	L568.8,539.1z M589.3,539.1v-1.5h4.6v-38.8h-4.8v-1.2c1.7,0,3.3-0.1,4.9-0.2s3.3-0.2,4.8-0.4v40.7h4.8v1.5L589.3,539.1L589.3,539.1z
	 M614.9,523.3h14.3v-0.6c0-2.5-0.5-4.4-1.6-5.5c-1-1.1-2.7-1.7-5-1.7c-2.4,0-4.3,0.7-5.5,2C615.8,518.7,615.1,520.7,614.9,523.3z
	 M614.9,525.1v1.9c0,4.2,0.5,7.1,1.6,8.8c1.1,1.7,2.9,2.5,5.6,2.5c2.2,0,4.2-0.6,5.7-1.8c1.6-1.2,2.7-2.9,3.2-5.1h1.4
	c-0.6,2.8-1.8,4.9-3.7,6.4c-1.9,1.4-4.3,2.1-7.4,2.1c-3.5,0-6.4-1.2-8.8-3.5c-2.4-2.3-3.5-5.2-3.5-8.6c0-3.7,1.2-6.9,3.6-9.5
	c2.4-2.6,5.4-3.9,8.9-3.9c3.3,0,5.9,0.9,7.8,2.8c1.9,1.9,3,4.5,3.3,8L614.9,525.1L614.9,525.1z M638.8,539.1v-1.5h4.2v-21.4h-4v-1.3
	c1.6,0,3.2-0.1,4.7-0.2c1.5-0.1,2.9-0.2,4.2-0.4v6.2c1-2,2.2-3.5,3.4-4.5c1.2-1,2.6-1.5,4-1.5c1.2,0,2.1,0.3,2.7,0.8
	c0.6,0.6,0.9,1.4,0.9,2.4c0,0.8-0.2,1.4-0.7,1.9c-0.5,0.5-1.1,0.7-1.9,0.7c-0.7,0-1.3-0.3-1.9-0.8c-0.5-0.5-0.8-1.1-0.8-1.8
	c0-0.2,0-0.4,0.1-0.6c0-0.2,0.1-0.4,0.1-0.4c0-0.2,0-0.3-0.1-0.3c0-0.1-0.1-0.1-0.2-0.1c-1.1,0-2.3,1-3.6,3c-1.2,2-1.9,4-1.9,6.1
	v12.3h4.6v1.5L638.8,539.1L638.8,539.1z M681.9,539.1v-1.6h4.6v-38.4h-4.6v-1.6h12.5l8.8,30.8l9.4-30.8h12.2v1.6h-4.9v38.4h4.9v1.6
	h-15.5v-1.6h4.7v-37.9h-0.2l-12,39.4h-1.6l-11.2-39.4h-0.5v37.9h4.7v1.6H681.9z M738,510.9l8.9-9.2c0.7-0.8,1.3-1.2,1.7-1.5
	c0.4-0.2,0.8-0.4,1.3-0.4c0.7,0,1.2,0.2,1.7,0.6c0.4,0.4,0.6,0.9,0.6,1.6c0,0.5-0.2,0.9-0.5,1.3c-0.3,0.4-0.8,0.9-1.4,1.3l-10.2,6.3
	H738z M737.2,527c0,4.6,0.5,7.6,1.4,9.2c0.9,1.5,2.5,2.3,4.8,2.3c2.3,0,3.9-0.8,4.8-2.5c1-1.7,1.4-4.7,1.4-9c0-4.6-0.5-7.7-1.4-9.2
	c-0.9-1.5-2.5-2.3-4.8-2.3c-2.3,0-3.9,0.8-4.9,2.4C737.7,519.7,737.2,522.7,737.2,527z M731.4,527c0-3.6,1.2-6.6,3.5-9
	c2.3-2.5,5.2-3.7,8.6-3.7c3.5,0,6.3,1.2,8.6,3.6c2.3,2.4,3.4,5.4,3.4,9c0,3.6-1.2,6.6-3.5,9.1c-2.4,2.5-5.2,3.7-8.5,3.7
	c-3.5,0-6.3-1.2-8.6-3.6C732.5,533.7,731.4,530.7,731.4,527z M763.5,539.1v-1.5h3.4v-21.4h-3.4v-1.3h1.1c1.3,0,2.5-0.1,3.7-0.2
	s2.3-0.2,3.4-0.4l0,7c0.9-2.3,2.2-4.1,3.7-5.3c1.6-1.2,3.5-1.8,5.6-1.8c2.2,0,3.9,0.6,5.2,1.8c1.2,1.2,1.9,2.8,1.9,4.9v16.6h3.3v1.5
	h-11.7v-1.5h3.6v-16.8c0-1.6-0.3-2.8-1-3.5c-0.6-0.8-1.6-1.1-3-1.1c-2,0-3.8,1-5.3,3.1c-1.5,2-2.2,4.5-2.2,7.4v10.9h3.3v1.5
	L763.5,539.1L763.5,539.1z M798.1,539.1v-1.5h4.3v-21.4h-4v-1.3h1.2c1.3,0,2.7-0.1,3.9-0.2c1.3-0.1,2.5-0.2,3.7-0.4v23.3h3.7v1.5
	L798.1,539.1L798.1,539.1z M801.9,502c0-0.9,0.3-1.6,0.9-2.2c0.6-0.6,1.4-0.9,2.2-0.9c0.8,0,1.6,0.3,2.2,0.9
	c0.6,0.6,0.9,1.3,0.9,2.2c0,0.9-0.3,1.6-0.9,2.2s-1.3,0.9-2.2,0.9c-0.9,0-1.6-0.3-2.2-0.9C802.2,503.6,801.9,502.9,801.9,502z
	 M820.4,537.6v-38.8h-3.3l0-1.3c1.2-0.1,2.3-0.1,3.5-0.2c1.2-0.1,2.8-0.2,4.7-0.4v40.7h3.5v1.5h-12v-1.5H820.4z M862.8,535.7
	c-0.8,1.3-2,2.3-3.6,3c-1.6,0.8-3.3,1.1-5.2,1.1c-2.1,0-3.8-0.5-5.1-1.5c-1.2-1-1.9-2.4-1.9-4.1c0-2.8,1.4-5,4.2-6.7
	c2.8-1.6,6.6-2.5,11.5-2.5v-5.9c0-1.2-0.4-2.1-1.2-2.7c-0.8-0.6-2-0.9-3.8-0.9c-1.3,0-2.5,0.2-3.5,0.7c-1,0.5-1.5,1-1.5,1.5
	c0,0.1,0.3,0.4,0.9,1c0.6,0.6,0.9,1.2,0.9,1.9c0,0.8-0.2,1.4-0.7,1.9c-0.5,0.5-1.1,0.7-1.8,0.7c-0.8,0-1.5-0.3-2-0.8
	c-0.5-0.5-0.7-1.3-0.7-2.2c0-1.7,0.9-3.1,2.8-4.3c1.8-1.1,4.2-1.7,7.2-1.7c3.1,0,5.3,0.5,6.5,1.5s1.9,2.7,1.9,5.2v13.8
	c0,1,0.1,1.6,0.3,1.9c0.2,0.3,0.5,0.4,1,0.4c0.5,0,1-0.2,1.4-0.6c0.4-0.4,0.7-1,0.8-1.6h1c-0.1,1.4-0.7,2.6-1.6,3.5
	c-1,0.9-2.2,1.3-3.6,1.3c-1.2,0-2.2-0.3-2.8-1C863.3,538.1,862.9,537.1,862.8,535.7z M862.6,526.4c-3.5,0-6.2,0.5-8.1,1.6
	c-1.9,1-2.8,2.6-2.8,4.6c0,1.5,0.4,2.6,1.3,3.5c0.9,0.9,2,1.3,3.5,1.3c1.8,0,3.3-0.5,4.4-1.4c1.2-0.9,1.7-2.1,1.7-3.6L862.6,526.4
	L862.6,526.4z M882.5,536.9c-0.3-0.5-0.6-0.9-1-1.3c-0.6-0.6-1.4-0.9-2.3-1.1c-0.9-0.1-1.6,0-2.2,0.4c-0.6,0.4-1,1-1.1,1.8
	c-0.1,0.7,0,1.4,0.5,1.9c0.4,0.5,1,0.9,1.8,1c0.7,0.1,1.4-0.1,2-0.6c0.7-0.5,1-0.7,1.1-0.7c0.8-0.1,1.5,0.8,1,1.9
	c-8,16.3-33.9,3.3-35.5,2.5c-9.2-4.1-14.3-13.7-16.8-19.3l8.6-7.2h3.9v-1.4h-10.4v1.4h4.2l-10.7,8.9c5.3,20.3,46.5,34.1,56.4,18.2
	C883.2,541.5,883.8,539.1,882.5,536.9z M482.5,539.1v-1.6h4.6v-38.4h-4.6v-1.6H495l8.8,30.8l9.4-30.8h12.2v1.6h-4.9v38.4h4.9v1.6
	h-15.5v-1.6h4.7v-37.9h-0.2l-12,39.4h-1.6l-11.2-39.4H489v37.9h4.7v1.6H482.5z M610.6,582.1v-0.6h1.9v-13.8h-1.8v-0.6h6.1v0.6h-2
	v13.8h3.1c1.1,0,2-0.3,2.5-0.8c0.5-0.5,1-1.5,1.3-2.9h0.4l-0.3,4.2H610.6z M630.6,576.1h3.9l-1.9-6L630.6,576.1z M626.3,582.1v-0.6
	h1.8l5.1-14.8h0.6l4.8,14.8h1.6v0.6h-5.7v-0.6h1.8l-1.5-4.8h-4.3l-1.6,4.8h1.9v0.6H626.3z M631.5,565.7l3.2-3.3
	c0.3-0.3,0.5-0.4,0.6-0.5c0.2-0.1,0.3-0.1,0.5-0.1c0.3,0,0.4,0.1,0.6,0.2c0.2,0.1,0.2,0.3,0.2,0.6c0,0.2-0.1,0.3-0.2,0.5
	c-0.1,0.2-0.3,0.3-0.5,0.5l-3.7,2.3L631.5,565.7L631.5,565.7z M648.8,574.5v7h2c1.3,0,2.1-0.2,2.5-0.7s0.7-1.4,0.7-2.7
	s-0.3-2.2-0.8-2.8c-0.5-0.5-1.4-0.8-2.7-0.8H648.8z M648.8,574h1.7c1.2,0,2.1-0.2,2.5-0.7c0.5-0.5,0.7-1.3,0.7-2.6
	c0-1.1-0.2-1.9-0.7-2.3c-0.5-0.4-1.3-0.6-2.6-0.6h-1.6L648.8,574L648.8,574z M645,582.1v-0.6h1.6v-13.8H645v-0.6h5.7
	c1.7,0,3,0.3,4,0.9c0.9,0.6,1.4,1.5,1.4,2.6c0,0.9-0.3,1.7-1,2.3c-0.6,0.6-1.5,1-2.7,1.2v0.1c1.3,0.2,2.3,0.7,3,1.3
	c0.8,0.7,1.1,1.5,1.1,2.4c0,1.3-0.5,2.3-1.5,3c-1,0.7-2.5,1.1-4.4,1.1L645,582.1L645,582.1z M666,576.1h3.9l-1.9-6L666,576.1z
	 M661.7,582.1v-0.6h1.8l5.1-14.8h0.6l4.8,14.8h1.6v0.6h-5.7v-0.6h1.8l-1.5-4.8h-4.3l-1.6,4.8h1.9v0.6H661.7z M666.9,565.7l3.2-3.3
	c0.3-0.3,0.5-0.4,0.6-0.5c0.2-0.1,0.3-0.1,0.5-0.1c0.3,0,0.4,0.1,0.6,0.2c0.2,0.1,0.2,0.3,0.2,0.6c0,0.2-0.1,0.3-0.2,0.5
	c-0.1,0.2-0.3,0.3-0.5,0.5l-3.7,2.3L666.9,565.7L666.9,565.7z M684.2,574.8h1c1.5,0,2.5-0.3,3.2-0.8s0.9-1.5,0.9-2.9
	c0-1.3-0.3-2.2-0.8-2.7s-1.6-0.7-3.3-0.7h-1L684.2,574.8L684.2,574.8z M680.3,582.1v-0.6h1.7v-13.8h-1.7v-0.6h5.2
	c2.1,0,3.6,0.3,4.6,1c1,0.6,1.5,1.6,1.5,2.9c0,1.4-0.5,2.5-1.7,3.2s-2.7,1.1-4.8,1.1h-0.9v6.2h1.8v0.6H680.3z M703.1,582.5
	c-1,0-1.9-0.2-2.7-0.6c-0.8-0.4-1.5-1-2.1-1.8c-0.6-0.7-1-1.6-1.3-2.5c-0.3-1-0.5-2-0.5-3c0-1,0.2-2,0.4-2.9
	c0.3-0.9,0.7-1.7,1.3-2.4c0.7-0.8,1.4-1.4,2.2-1.8c0.8-0.4,1.6-0.6,2.5-0.6c0.9,0,1.7,0.2,2.4,0.5c0.7,0.3,1.4,0.9,2,1.6
	c0.6,0.8,1.1,1.6,1.5,2.6c0.3,1,0.5,2,0.5,3.1c0,1.1-0.2,2.1-0.5,3c-0.3,1-0.8,1.8-1.4,2.5c-0.6,0.8-1.3,1.3-2,1.7
	C704.9,582.3,704,582.5,703.1,582.5z M703.1,567.4c-1.4,0-2.4,0.6-3,1.8c-0.6,1.2-0.9,3.3-0.9,6.4c0,2.1,0.3,3.7,1,4.7
	c0.7,1,1.6,1.6,2.9,1.6c1.3,0,2.3-0.5,2.9-1.6c0.6-1,1-2.6,1-4.8c0-3.1-0.3-5.3-0.9-6.4C705.5,568,704.5,567.4,703.1,567.4z
	 M715,582.1v-0.6h1.9v-13.8h-1.8v-0.6h6.1v0.6h-2v13.8h3.1c1.1,0,2-0.3,2.5-0.8c0.5-0.5,1-1.5,1.3-2.9h0.4l-0.3,4.2H715z M735,576.1
	h3.9l-1.9-6L735,576.1z M730.7,582.1v-0.6h1.8l5.1-14.8h0.6l4.8,14.8h1.6v0.6h-5.7v-0.6h1.8l-1.5-4.8h-4.3l-1.6,4.8h1.9v0.6H730.7z
	 M735.8,565.7l3.2-3.3c0.3-0.3,0.5-0.4,0.6-0.5c0.2-0.1,0.3-0.1,0.5-0.1c0.3,0,0.4,0.1,0.6,0.2c0.2,0.1,0.2,0.3,0.2,0.6
	c0,0.2-0.1,0.3-0.2,0.5c-0.1,0.2-0.3,0.3-0.5,0.5l-3.7,2.3L735.8,565.7L735.8,565.7z M749.7,582.2h-0.4v-3.9h0.4
	c0.4,1.1,0.9,2,1.7,2.6c0.8,0.6,1.6,1,2.6,1c1.1,0,2-0.3,2.7-1c0.7-0.7,1.1-1.5,1.1-2.5c0-1.1-1.1-2.1-3.4-2.8
	c-0.2,0-0.3-0.1-0.4-0.1c-1.9-0.6-3.2-1.2-3.8-1.9s-0.9-1.5-0.9-2.6c0-1.2,0.4-2.2,1.2-3c0.8-0.8,1.9-1.2,3.2-1.2
	c1,0,1.9,0.3,2.7,0.7c0.2,0.1,0.3,0.2,0.3,0.2c0,0,0.1,0,0.1,0c0,0,0.1,0,0.1-0.1l0.4-0.5h0.5v3.4h-0.4c-0.4-1.1-0.9-1.9-1.5-2.4
	c-0.7-0.5-1.5-0.8-2.4-0.8c-0.9,0-1.6,0.3-2.2,0.8c-0.6,0.5-0.9,1.1-0.9,1.9c0,0.6,0.2,1.1,0.7,1.5s1.2,0.7,2.2,1
	c0.2,0,0.4,0.1,0.7,0.2c1.7,0.5,2.9,0.9,3.4,1.3c0.5,0.4,0.9,0.8,1.1,1.4c0.3,0.6,0.4,1.2,0.4,1.9c0,1.6-0.5,2.8-1.4,3.7
	c-0.9,0.9-2.2,1.4-3.7,1.4c-1.1,0-2.1-0.3-3-0.9c-0.2-0.1-0.2-0.2-0.3-0.2s0,0-0.1,0s-0.1,0-0.1,0.1L749.7,582.2z"/>
</svg>
