<?xml version="1.0" encoding="utf-8"?>
<!-- Generator: Adobe Illustrator 24.2.3, SVG Export Plug-In . SVG Version: 6.00 Build 0)  -->
<svg version="1.1" id="Réteg_1" xmlns="http://www.w3.org/2000/svg" xmlns:xlink="http://www.w3.org/1999/xlink" x="0px" y="0px"
	 viewBox="0 0 1366 768" style="enable-background:new 0 0 1366 768;" xml:space="preserve">
<style type="text/css">
	.st0{fill-rule:evenodd;clip-rule:evenodd;fill:#105D83;}
	.st1{fill-rule:evenodd;clip-rule:evenodd;fill:#55575B;}
</style>
<path class="st0" d="M600.12,322.59c1.96,2.18,5.17,1.99,7.16,1.36c0.66-1.89,0.11-4.87-3.54-5.15c0.85,0.31,1.86,0.76,2.52,1.54
	c0.59,0.69,0.91,1.67,0.62,2.68c-0.02,0.09-0.09,0.08-0.17,0.11C605.32,323.72,602.64,323.53,600.12,322.59 M599.18,324.25
	c2.21,2.57,8.71,2.9,12.36,0.87c3.44-1.9,3.01-4.21,4.01-6.84c1.63-4.27,10-10.83,13.23-12.11c-7.16,6.36-11.51,8.75-13.34,16.16
	C613.56,329.96,598.59,330.2,599.18,324.25z M546.83,309.29c1.9,5.96,7.58,10.51,17.38,10.65c0.26,0,0.95-0.13,1.52-0.24l0.27-0.21
	c-1.2-5.97,9.67-15.88,14.81-19.69c1.69-1.25-4.53,4.1-9.12,9.62c-5.34,6.42-4.98,10.49-4.98,10.49c1.51,0.46,6.93,1.64,7.31,1.04
	c0.83-1.35,1.89-4.37-1.26-5.81c3.67,1.15,3.07,3.02,1.73,6.62c-0.1,0.26-6.26-0.3-7.83-1.11c0.53,6.44,12.04,8.15,15.72,2.31
	c0.41-0.66,1.2-1.77,1.36-2.58l0-0.01l0,0c0.37-1.85,0.47-3.88,1.08-5.63c3.54-10.23,12.49-13.71,10.94-13.09
	c-0.99,0.4-6.18,5.92-8.78,10.44c-1.64,2.85-1.27,6.25-1.93,9.19c1.58,0.9,3.29,1.1,5.5,0.34c0.9-0.31,0.81-2.84,0.18-4.18
	c-0.63-1.34-1.86-1.45-2.09-1.83c-0.37-0.59,4.38,1.14,2.91,6.51c0,0-0.58,0.39-0.95,0.48c-1.8,0.42-4.31,0.34-5.75-0.56
	c-0.25,0.68-0.66,1.5-1.4,2.31c2.25,2.52,8.59,3.25,12.22,1.24c0.9-0.5,1.54-1.06,2-1.67c1.54-2,1.82-4.51,2.44-6.25
	c2.04-5.75,7.36-10.18,7.38-10.21l0,0c0,0,0.1,0.15,0.12,0.23c0.04,0.2-0.31,0.43-0.34,0.46c-5.18,6.13-6.96,11.2-7.11,12.4
	c-0.03,0.23-0.12,1.15-0.59,2.26c-0.79,1.85-2.1,2.93-2.57,3.32c-3.23,2.67-8.92,2.91-11.76,1.13c-0.53-0.33-2.13-1.08-2.3-2.29
	c-0.52,0.45-0.97,0.94-2.05,1.51c-3.67,1.96-9.77,2.87-13.1-0.47c-0.6-0.6-1.6-1.82-2.06-4.04c-0.51,0.08-1.13,0.17-1.34,0.18
	C554.08,322.55,546.9,318.09,546.83,309.29z M593.47,275.16c-0.39-2.39-9.52,7.26-13.06,11.06c-8.05,8.64-12.99,10.11-19.59,12.45
	l-13.72,5.19c4.36,0.23,9.76,2.64,11.7,4.59c0.89,0.9,7.34-3.14,4.95-5.31c-0.44-0.4-1.74-1.02-1.74-1.02
	c3.85,2.07-1.87,5.68-2.33,5.35c-2.68-1.87-5.82-3.32-7.83-4.02c1.45-0.54,3.62-1.34,6.28-2.28c7.11-2.51,8.17-2.66,10.08-3.42
	c3.62-1.46,5.19-3.09,13.75-11.46C585.26,283.06,588.35,279.5,593.47,275.16z M702.87,249.28c20.91-11.35,22.05-18.58,22.05-18.58
	c-1.64,3.66,0.64,14.14-1.49,25.27c-1.66,8.62-5.36,16.22-13.1,19.96c-4.05,1.95-11.16,4.6-17.02,6.98
	c-5.02,2.04-31.68,21.99-35.11,24.45c-6.12,4.41-8.21,1.76-21.73,12.49c-6.42,5.09-14.13,9.88-20.94,3.1
	c0.14,0.83,0.37,1.98,1.26,2.75c4.77,4.15,12.44,1.47,18.81-3.17c8.21-5.98,5.65-5.36,11.14-7.92c3.94-1.83,7.34-2.73,10.8-4.42
	c0.57-0.28,7.01-4.03,7.01-4.03c1.82-1.21,5.84-4.11,7.45-5.08c5.97-3.6,16.06-13.21,23.98-16.41c16.57-6.7,20.03-8.04,26.7-15.9
	c7.48-8.82,1.91-28.27,4.39-36.99c0.37-1.29,1.63-3.62,2.31-4.8l0,0l0,0l1.62-2.21l0,0l0.81-1.11
	c8.36-9.86,61.53-78.69,87.05-147.66h-5.92c-16.95,48.4-45.68,96.11-81.51,143.71c4.54-9.21,4.58-17.13,9.64-20.78
	C727.13,208.9,734.17,226.95,702.87,249.28z M684.42,88.14c-8.25,8.54,18.11,39.51-18.89,56.83
	C695.51,126.99,671.92,88.97,684.42,88.14z M639.86,76c-3,17.25-13.57,37.68-17.4,104.58c-0.86,14.99-17.8,40.49-22.48,56.92
	c-2.4,8.4-1.92,6.91-3.03,12.35c2.9-4.71,5.9-10.26,7.6-16.97c3.4-13.44,19.11-37.79,20.15-51.86c1.19-16.23,2.63-36.56,4.69-45.77
	c6.39-28.6,6.65-33.01,13.57-59.24H639.86z M604.03,289.76 M692.35,180.79c-0.81,0.37-1.48,0.48-2.01,0.58
	c-12.01,2.36-21.71,5.84-23.65,20.23c-0.64,4.79-1.43,16.53-1.66,20.6C679.67,209.5,683.66,194.23,692.35,180.79z M593.47,275.16
	L593.47,275.16C593.22,274.86,593.47,275.16,593.47,275.16c-0.73-3.33-0.62-6.14,0.03-8.7c0.03-0.81,0.09-1.83,0.07-3.07
	c-0.16-10.28,7.21-16.8,13.3-30.74c-1.71,8.85-12.59,23.98-11.83,29.8c3.08-6.09,8.93-11.49,13.01-20.85
	c-0.49,8.46-17.26,25.79-13.52,30.71c0.43-0.87,1.81-2.96,2.37-3.47c4.94-4.46,9.88-8.45,13.62-18.43c-0.6,4.84-2.31,7.9-4.88,11.73
	c-2.74,4.08-8.53,7.56-10.38,12.5c0,0.01-2.15,5.03-2.28,5.46c-0.23,0.77-0.91,3.01-0.99,3.69c-0.67,5.58,6.15,6.09,7.06,6.05
	c0.8-0.04-2.9-3.36-3.69-6.09c-0.05-0.18-0.81-2.34-0.65-4.06c0.09-0.99,0.66-2.34,1.15-2.76c0.51-0.43,0.39-0.45,1.14-0.79
	c10.12-7.9,20.79-13.44,25.25-25.24c-2.34,6.2-4.9,10.6-8.99,14.7c3.77,0.42,9.89,2.09,12.68,3.98c-3.73-1.27-10.09-2.63-13.94-2.82
	c-7.03,4.97-8.89,6.84-13.92,9.92c1.91-1.17,9.96,0.85,11.83,2.82c0.36,0.38,7.45-4.63,3.12-7.46c5.61,2.04-0.85,8.67-3.65,8.74
	c-0.62,0.02-3.76-3.43-11.92-3.35c-0.62-0.1-1.09,0.3-1.16,0.34c-0.62,0.41-1.03,1.38-0.58,3.47c0.42,1.32,1.83,3.41,2.18,4.12
	c3.21,3.83,5.51,4.29,7.43,4.95c10.73,3.69,24.74-3.75,28.31-11.54c0.52-1.14,1.56-3.82,4.12-6.59c1.22-1.31,2.76-2.35,5.6-4.15
	c33.54-21.2,10.77-58.62,23.95-78.93c5.9-9.09,15.6-9.04,21.19-11.3c14.07-5.72,21.1-27.51,16.96-42.79
	c-1.82-6.72-5.08-13.1-6.33-19.91c-2.62-14.24,2.29-27.81,6.85-39.11H711c-8.4,17.55-9.5,28.62-8.8,39.31
	c0.57,8.69,4.4,12.5,7.25,20.5c2.27,6.38,1.86,5.21,2.09,7.33c7.19-23.78,9.75-31.31,16.67-67.15h5.51
	c-9.28,35.01-8.44,41.33-20.54,72.13c-2.33,7.72-14,26.45-16.51,30.89c-10.75,18.97-16.22,33.73-31.52,45.68
	c-0.87,23.59,0.69,30.41-22.39,45.01c-4.68,2.96-4.89,4.62-7.31,8.97c-4.95,8.93-23.56,20.98-35.07,12.09c0.52,0.4,0,0,0,0
	c-3.21,2.13-11.98-2.09-9.24-9.76 M617.28,321.8c1.71,1.82,4.43,1.6,6.12,1.03c0.52-1.62,0-4.15-3.1-4.32
	c0.73,0.25,1.6,0.61,2.18,1.27c0.51,0.58,0.8,1.41,0.57,2.28c-0.02,0.07-0.07,0.07-0.15,0.1
	C621.72,322.67,619.44,322.56,617.28,321.8z M592.05,283.45 M591.99,283.79c-0.02,0.13-0.03,0.26-0.03,0.39
	c-0.01,0.15-0.01,0.3-0.01,0.45c0.37,0.08,0.8,0.15,1.27,0.19c1.19,0.09,1.96-0.05,2.46-0.21c-0.04-0.08-0.08-0.17-0.11-0.26
	c-0.03-0.08-0.07-0.16-0.1-0.24c-0.53,0.11-1,0.14-2.02,0.04C592.79,284.08,592.39,283.92,591.99,283.79z M593.47,278.9
	c0.51,0.19,0.45,0.15,0.62,0.22c0.25,0.11,0.33,0.13,0.65,0.37c0.03-0.09,0.02-0.13,0.04-0.21c0.02-0.09,0.02-0.11,0.04-0.19
	c-0.2-0.11-0.3-0.12-0.59-0.2c-0.28-0.08-0.28-0.07-0.52-0.08"/>
<path class="st1" d="M536.68,377.11c0-0.83,0.31-1.55,0.91-2.15c0.61-0.6,1.33-0.9,2.15-0.9c0.82,0,1.55,0.29,2.16,0.9
	c0.62,0.6,0.93,1.32,0.93,2.15c0,0.86-0.29,1.6-0.9,2.2c-0.6,0.6-1.33,0.9-2.19,0.9c-0.86,0-1.59-0.29-2.18-0.88
	C536.98,378.73,536.68,377.99,536.68,377.11 M548.44,377.11c0-0.83,0.31-1.55,0.91-2.15c0.61-0.6,1.32-0.9,2.12-0.9
	c0.84,0,1.58,0.29,2.19,0.9c0.62,0.6,0.93,1.32,0.93,2.15c0,0.86-0.3,1.6-0.9,2.2c-0.6,0.6-1.34,0.9-2.22,0.9
	c-0.84,0-1.56-0.29-2.15-0.88C548.74,378.73,548.44,377.99,548.44,377.11z M535.83,387.25h-3.62v-1.33h1.39
	c1.46,0,2.74-0.04,3.83-0.14c1.1-0.09,2.08-0.23,2.94-0.42v18.31c0,2.13,0.31,3.5,0.93,4.13c0.61,0.62,1.77,0.94,3.46,0.94
	c1.99,0,3.68-0.81,5.06-2.43c1.38-1.64,2.07-3.69,2.07-6.19v-12.87h-3.68v-1.33h1.08c1.23,0,2.49-0.05,3.75-0.16
	c1.26-0.11,2.5-0.24,3.69-0.43l0.03,23.28h3.33v1.45h-1.33c-1.38,0-2.61,0.04-3.7,0.14c-1.1,0.1-2.11,0.23-3.06,0.42v-5.26
	c-0.91,1.7-2.14,3-3.69,3.93c-1.56,0.93-3.3,1.39-5.24,1.39c-2.57,0-4.43-0.54-5.55-1.62c-1.13-1.08-1.7-2.88-1.7-5.4V387.25z
	 M568.78,410.07v-1.45h4.63v-38.84h-4.75v-1.23c1.67-0.04,3.32-0.12,4.94-0.22c1.62-0.1,3.25-0.24,4.85-0.43v40.73h4.75v1.45H568.78
	z M589.27,410.07v-1.45h4.63v-38.84h-4.75v-1.23c1.67-0.04,3.32-0.12,4.94-0.22c1.62-0.1,3.25-0.24,4.85-0.43v40.73h4.75v1.45
	H589.27z M614.86,394.32h14.35v-0.62c0-2.55-0.53-4.4-1.56-5.53c-1.04-1.13-2.71-1.7-5.03-1.7c-2.41,0-4.25,0.65-5.53,1.96
	C615.79,389.74,615.05,391.71,614.86,394.32z M614.87,396.08v1.85c0,4.17,0.54,7.09,1.62,8.75c1.07,1.66,2.94,2.49,5.6,2.49
	c2.24,0,4.15-0.6,5.72-1.8c1.58-1.21,2.66-2.9,3.22-5.08h1.39c-0.62,2.81-1.85,4.93-3.72,6.36c-1.87,1.42-4.32,2.13-7.39,2.13
	c-3.48,0-6.41-1.17-8.77-3.51c-2.37-2.33-3.55-5.2-3.55-8.59c0-3.73,1.21-6.88,3.63-9.46c2.43-2.58,5.38-3.88,8.87-3.88
	c3.28,0,5.86,0.92,7.76,2.76c1.89,1.85,2.99,4.51,3.3,7.99H614.87z M638.79,410.07v-1.45h4.17v-21.36h-4.05v-1.33
	c1.62,0,3.19-0.05,4.7-0.16c1.5-0.11,2.91-0.23,4.23-0.4v6.19c1.03-2.02,2.16-3.53,3.39-4.53c1.24-1,2.57-1.5,3.98-1.5
	c1.18,0,2.08,0.27,2.69,0.83c0.62,0.56,0.93,1.36,0.93,2.41c0,0.78-0.24,1.41-0.73,1.89c-0.48,0.47-1.13,0.71-1.93,0.71
	c-0.72,0-1.34-0.25-1.87-0.77c-0.53-0.52-0.79-1.13-0.79-1.82c0-0.17,0.02-0.36,0.06-0.59c0.04-0.22,0.06-0.37,0.06-0.43
	c0-0.17-0.02-0.27-0.06-0.34c-0.04-0.06-0.11-0.09-0.19-0.09c-1.13,0-2.32,0.99-3.56,2.96c-1.24,1.98-1.87,4.01-1.87,6.08v12.26
	h4.61v1.45H638.79z M681.92,410.07v-1.57h4.57v-38.42h-4.57v-1.57h12.54l8.77,30.75l9.36-30.75h12.23v1.57h-4.88v38.42h4.88v1.57
	h-15.5v-1.57h4.66v-37.86h-0.24l-12.03,39.43h-1.57l-11.21-39.43h-0.5v37.86h4.69v1.57H681.92z M737.98,381.94l8.93-9.23
	c0.72-0.75,1.29-1.23,1.71-1.49c0.43-0.24,0.84-0.37,1.25-0.37c0.69,0,1.23,0.2,1.66,0.6c0.42,0.4,0.63,0.93,0.63,1.56
	c0,0.45-0.16,0.9-0.47,1.33c-0.33,0.43-0.8,0.85-1.44,1.26l-10.19,6.34H737.98z M737.22,398.05c0,4.58,0.46,7.63,1.39,9.19
	c0.93,1.55,2.53,2.33,4.82,2.33c2.26,0,3.87-0.82,4.81-2.47c0.95-1.65,1.42-4.65,1.42-8.99c0-4.62-0.46-7.67-1.37-9.19
	c-0.92-1.51-2.52-2.27-4.81-2.27c-2.3,0-3.92,0.8-4.86,2.41C737.69,390.67,737.22,393.67,737.22,398.05z M731.38,398.05
	c0-3.58,1.17-6.6,3.51-9.04c2.33-2.46,5.2-3.68,8.59-3.68c3.47,0,6.32,1.2,8.6,3.62c2.28,2.4,3.41,5.42,3.41,9.04
	c0,3.56-1.18,6.59-3.53,9.06c-2.36,2.48-5.21,3.72-8.54,3.72c-3.47,0-6.33-1.21-8.62-3.63C732.52,404.73,731.38,401.7,731.38,398.05
	z M763.51,410.07v-1.45h3.36v-21.36h-3.42v-1.33h1.14c1.29,0,2.52-0.05,3.71-0.16c1.19-0.11,2.32-0.24,3.36-0.43l0.03,7.04
	c0.91-2.33,2.15-4.08,3.72-5.26c1.58-1.19,3.46-1.78,5.64-1.78c2.2,0,3.92,0.59,5.15,1.76c1.23,1.17,1.86,2.83,1.86,4.94v16.58h3.3
	v1.45h-11.7v-1.45h3.58v-16.77c0-1.58-0.32-2.75-0.96-3.52c-0.63-0.76-1.62-1.14-2.96-1.14c-2.03,0-3.8,1.02-5.28,3.06
	c-1.49,2.03-2.22,4.52-2.22,7.44v10.93h3.33v1.45H763.51z M798.14,410.07v-1.45h4.26v-21.36h-3.98v-1.33h1.2
	c1.33,0,2.65-0.05,3.94-0.16c1.3-0.11,2.53-0.24,3.69-0.43v23.28h3.68v1.45H798.14z M801.87,373.01c0-0.86,0.3-1.59,0.92-2.19
	c0.61-0.6,1.36-0.9,2.23-0.9c0.85,0,1.59,0.31,2.2,0.91c0.61,0.61,0.92,1.34,0.92,2.18c0,0.86-0.31,1.6-0.92,2.22
	c-0.61,0.62-1.35,0.93-2.2,0.93c-0.88,0-1.62-0.3-2.23-0.93C802.17,374.61,801.87,373.87,801.87,373.01z M820.37,408.61v-38.84h-3.3
	l0.03-1.27c1.15-0.06,2.33-0.14,3.53-0.23c1.21-0.1,2.76-0.22,4.68-0.39v40.73h3.52v1.45h-11.95v-1.45H820.37z M862.77,406.7
	c-0.8,1.25-2.01,2.27-3.64,3.01c-1.61,0.75-3.35,1.13-5.23,1.13c-2.14,0-3.84-0.52-5.08-1.54c-1.24-1.03-1.87-2.4-1.87-4.11
	c0-2.83,1.38-5.04,4.15-6.67c2.77-1.62,6.6-2.46,11.5-2.5v-5.94c0-1.21-0.41-2.11-1.22-2.69c-0.81-0.58-2.05-0.86-3.75-0.86
	c-1.33,0-2.51,0.23-3.53,0.71c-1.02,0.47-1.53,0.96-1.53,1.45c0,0.08,0.3,0.41,0.89,0.98c0.58,0.56,0.88,1.2,0.88,1.93
	c0,0.78-0.23,1.42-0.71,1.92c-0.47,0.49-1.08,0.74-1.82,0.74c-0.82,0-1.48-0.26-1.95-0.8c-0.47-0.54-0.71-1.25-0.71-2.16
	c0-1.72,0.93-3.13,2.78-4.27c1.85-1.13,4.24-1.7,7.16-1.7c3.09,0,5.26,0.49,6.51,1.47c1.25,0.98,1.89,2.73,1.89,5.24v13.8
	c0,0.97,0.09,1.6,0.27,1.91c0.19,0.3,0.52,0.44,0.99,0.44c0.52,0,0.98-0.21,1.39-0.63c0.41-0.42,0.7-0.95,0.83-1.59H872
	c-0.13,1.44-0.66,2.6-1.62,3.49c-0.96,0.89-2.15,1.33-3.56,1.33c-1.22,0-2.17-0.34-2.85-1.02
	C863.29,409.08,862.89,408.06,862.77,406.7z M862.61,397.41c-3.52,0-6.21,0.53-8.07,1.59c-1.87,1.05-2.79,2.59-2.79,4.62
	c0,1.45,0.43,2.59,1.3,3.46c0.86,0.86,2.01,1.3,3.46,1.3c1.79,0,3.26-0.46,4.4-1.39c1.15-0.93,1.72-2.13,1.72-3.62V397.41z
	 M882.51,407.92c-0.3-0.51-0.64-0.94-1.03-1.29c-0.64-0.58-1.38-0.94-2.25-1.08c-0.89-0.14-1.64-0.02-2.24,0.36
	c-0.6,0.39-0.97,0.99-1.09,1.8c-0.12,0.73,0.03,1.37,0.45,1.92c0.42,0.55,1.01,0.88,1.79,1c0.72,0.11,1.4-0.08,2.04-0.57
	c0.65-0.49,1.02-0.71,1.11-0.72c0.77-0.15,1.5,0.81,0.96,1.9c-7.99,16.26-33.9,3.27-35.54,2.53c-9.23-4.14-14.32-13.7-16.79-19.27
	l8.61-7.19h3.92v-1.39h-10.37v1.39h4.16l-10.73,8.9c5.3,20.32,46.49,34.05,56.43,18.2C883.15,412.47,883.8,410.1,882.51,407.92z
	 M482.46,410.07v-1.57h4.57v-38.42h-4.57v-1.57H495l8.77,30.75l9.36-30.75h12.23v1.57h-4.88v38.42h4.88v1.57h-15.5v-1.57h4.66
	v-37.86h-0.24l-12.03,39.43h-1.57l-11.2-39.43h-0.5v37.86h4.69v1.57H482.46z M610.59,453.11v-0.57h1.87v-13.82h-1.78v-0.57h6.12
	v0.57h-2.05v13.82h3.07c1.13,0,1.96-0.26,2.51-0.77c0.54-0.51,0.98-1.47,1.32-2.87h0.43l-0.25,4.21H610.59z M630.6,447.08h3.91
	l-1.89-6L630.6,447.08z M626.29,453.11v-0.57h1.78l5.1-14.77h0.56l4.75,14.77h1.57v0.57h-5.69v-0.57h1.84l-1.5-4.8h-4.32l-1.59,4.8
	h1.89v0.57H626.29z M631.45,436.67l3.21-3.32c0.26-0.27,0.46-0.44,0.61-0.53c0.16-0.09,0.3-0.13,0.45-0.13
	c0.25,0,0.44,0.07,0.6,0.22c0.15,0.14,0.23,0.33,0.23,0.56c0,0.16-0.06,0.32-0.17,0.48c-0.12,0.16-0.29,0.31-0.52,0.46l-3.67,2.28
	H631.45z M648.82,445.54v7.01h1.98c1.25,0,2.1-0.24,2.55-0.72c0.45-0.48,0.68-1.38,0.68-2.69c0-1.31-0.26-2.24-0.78-2.78
	c-0.52-0.54-1.4-0.82-2.65-0.82H648.82z M648.82,444.97h1.69c1.23,0,2.06-0.23,2.52-0.69c0.46-0.46,0.68-1.32,0.68-2.59
	c0-1.12-0.23-1.9-0.68-2.32c-0.46-0.43-1.32-0.64-2.61-0.64h-1.6V444.97z M644.95,453.11v-0.57h1.64v-13.82h-1.64v-0.57h5.73
	c1.73,0,3.05,0.3,3.96,0.89c0.91,0.59,1.36,1.45,1.36,2.58c0,0.93-0.32,1.71-0.95,2.32c-0.64,0.61-1.54,1.01-2.7,1.21v0.09
	c1.27,0.22,2.28,0.66,3.03,1.35c0.75,0.68,1.12,1.49,1.12,2.43c0,1.31-0.51,2.32-1.54,3.03c-1.02,0.71-2.48,1.07-4.37,1.07H644.95z
	 M666,447.08h3.91l-1.89-6L666,447.08z M661.69,453.11v-0.57h1.78l5.1-14.77h0.57l4.76,14.77h1.57v0.57h-5.69v-0.57h1.84l-1.5-4.8
	h-4.32l-1.59,4.8h1.89v0.57H661.69z M666.85,436.67l3.21-3.32c0.26-0.27,0.46-0.44,0.61-0.53c0.16-0.09,0.3-0.13,0.45-0.13
	c0.25,0,0.44,0.07,0.59,0.22c0.15,0.14,0.23,0.33,0.23,0.56c0,0.16-0.06,0.32-0.17,0.48c-0.12,0.16-0.29,0.31-0.52,0.46l-3.67,2.28
	H666.85z M684.15,445.79h1c1.49,0,2.55-0.28,3.16-0.83c0.61-0.55,0.92-1.52,0.92-2.9c0-1.3-0.26-2.18-0.78-2.65
	c-0.52-0.47-1.6-0.7-3.25-0.7h-1.05V445.79z M680.29,453.11v-0.57h1.68v-13.82h-1.68v-0.57h5.19c2.07,0,3.6,0.32,4.61,0.96
	c1,0.64,1.51,1.61,1.51,2.92c0,1.41-0.55,2.48-1.66,3.22c-1.11,0.74-2.73,1.1-4.85,1.1h-0.93v6.19h1.78v0.57H680.29z M703.07,453.48
	c-1.01,0-1.89-0.19-2.65-0.56c-0.76-0.38-1.45-0.97-2.08-1.78c-0.56-0.73-0.99-1.57-1.3-2.53c-0.3-0.96-0.45-1.97-0.45-3.03
	c0-1.02,0.15-1.98,0.44-2.86c0.29-0.88,0.73-1.68,1.31-2.4c0.68-0.82,1.4-1.43,2.18-1.84c0.78-0.4,1.63-0.6,2.55-0.6
	c0.89,0,1.7,0.18,2.44,0.53c0.73,0.35,1.41,0.9,2.04,1.62c0.64,0.76,1.14,1.61,1.47,2.57c0.34,0.96,0.51,1.98,0.51,3.07
	c0,1.06-0.16,2.07-0.48,3.03c-0.32,0.96-0.78,1.81-1.38,2.54c-0.62,0.76-1.29,1.32-2.03,1.68
	C704.89,453.3,704.04,453.48,703.07,453.48z M703.07,438.42c-1.43,0-2.44,0.59-3.03,1.77c-0.58,1.18-0.87,3.32-0.87,6.42
	c0,2.12,0.32,3.7,0.96,4.74c0.65,1.04,1.62,1.57,2.94,1.57c1.31,0,2.28-0.52,2.92-1.57c0.64-1.05,0.96-2.64,0.96-4.78
	c0-3.13-0.29-5.27-0.86-6.42C705.51,438.99,704.5,438.42,703.07,438.42z M714.97,453.11v-0.57h1.87v-13.82h-1.79v-0.57h6.12v0.57
	h-2.05v13.82h3.07c1.13,0,1.96-0.26,2.51-0.77c0.54-0.51,0.98-1.47,1.32-2.87h0.43l-0.25,4.21H714.97z M734.98,447.08h3.91l-1.89-6
	L734.98,447.08z M730.67,453.11v-0.57h1.78l5.1-14.77h0.57l4.75,14.77h1.57v0.57h-5.69v-0.57h1.84l-1.5-4.8h-4.32l-1.59,4.8h1.89
	v0.57H730.67z M735.83,436.67l3.21-3.32c0.26-0.27,0.46-0.44,0.61-0.53c0.16-0.09,0.3-0.13,0.45-0.13c0.25,0,0.44,0.07,0.6,0.22
	c0.15,0.14,0.23,0.33,0.23,0.56c0,0.16-0.06,0.32-0.17,0.48c-0.12,0.16-0.29,0.31-0.52,0.46l-3.67,2.28H735.83z M749.65,453.18
	h-0.39v-3.94h0.43c0.36,1.11,0.92,1.98,1.68,2.62c0.77,0.64,1.63,0.96,2.59,0.96c1.07,0,1.98-0.34,2.71-1.01
	c0.74-0.68,1.11-1.49,1.11-2.46c0-1.14-1.12-2.06-3.36-2.76c-0.18-0.05-0.31-0.09-0.4-0.12c-1.91-0.61-3.18-1.23-3.81-1.87
	c-0.63-0.64-0.94-1.51-0.94-2.6c0-1.23,0.4-2.23,1.21-3c0.81-0.77,1.86-1.16,3.16-1.16c0.96,0,1.86,0.25,2.7,0.74
	c0.16,0.1,0.25,0.15,0.28,0.15c0.04-0.01,0.08-0.02,0.12-0.04c0.03-0.02,0.06-0.05,0.09-0.08l0.43-0.48h0.48v3.42h-0.41
	c-0.36-1.07-0.87-1.88-1.53-2.41c-0.66-0.53-1.46-0.8-2.4-0.8c-0.86,0-1.59,0.26-2.17,0.77c-0.59,0.51-0.88,1.14-0.88,1.88
	c0,0.61,0.23,1.12,0.68,1.51c0.45,0.39,1.19,0.72,2.22,1c0.15,0.04,0.37,0.1,0.67,0.18c1.72,0.46,2.86,0.9,3.41,1.32
	c0.49,0.38,0.86,0.85,1.12,1.41c0.25,0.56,0.38,1.2,0.38,1.91c0,1.55-0.46,2.78-1.37,3.7c-0.91,0.92-2.15,1.38-3.7,1.38
	c-1.09,0-2.08-0.3-2.99-0.9c-0.15-0.1-0.23-0.15-0.25-0.15c-0.02,0-0.05,0.01-0.08,0.03c-0.03,0.02-0.07,0.05-0.11,0.09
	L749.65,453.18z"/>
</svg>
