<?xml version="1.0" encoding="utf-8"?>
<!-- Generator: Adobe Illustrator 24.2.3, SVG Export Plug-In . SVG Version: 6.00 Build 0)  -->
<svg version="1.1" id="Réteg_1" xmlns="http://www.w3.org/2000/svg" xmlns:xlink="http://www.w3.org/1999/xlink" x="0px" y="0px"
	 viewBox="0 0 141.73 56.69" style="enable-background:new 0 0 141.73 56.69;" xml:space="preserve">
<style type="text/css">
	.st0{fill-rule:evenodd;clip-rule:evenodd;fill:#55575B;}
</style>
<path class="st0" d="M22.35,17.87c0-0.28,0.1-0.51,0.3-0.71c0.2-0.2,0.44-0.3,0.71-0.3c0.27,0,0.51,0.1,0.72,0.3
	c0.21,0.2,0.31,0.44,0.31,0.71c0,0.29-0.1,0.53-0.3,0.73c-0.2,0.2-0.44,0.3-0.73,0.3c-0.29,0-0.53-0.1-0.72-0.29
	C22.44,18.41,22.35,18.16,22.35,17.87 M26.25,17.87c0-0.28,0.1-0.51,0.3-0.71c0.2-0.2,0.44-0.3,0.7-0.3c0.28,0,0.52,0.1,0.73,0.3
	c0.21,0.2,0.31,0.44,0.31,0.71c0,0.29-0.1,0.53-0.3,0.73c-0.2,0.2-0.44,0.3-0.74,0.3c-0.28,0-0.52-0.1-0.71-0.29
	C26.35,18.41,26.25,18.16,26.25,17.87z M22.06,21.23h-1.2v-0.44h0.46c0.49,0,0.91-0.01,1.27-0.05c0.36-0.03,0.69-0.08,0.98-0.14
	v6.08c0,0.71,0.1,1.16,0.31,1.37c0.2,0.21,0.59,0.31,1.15,0.31c0.66,0,1.22-0.27,1.68-0.81c0.46-0.54,0.69-1.22,0.69-2.05v-4.27
	h-1.22v-0.44h0.36c0.41,0,0.83-0.02,1.25-0.05c0.42-0.04,0.83-0.08,1.22-0.14l0.01,7.73h1.11v0.48h-0.44
	c-0.46,0-0.87,0.01-1.23,0.05c-0.36,0.03-0.7,0.08-1.01,0.14v-1.75c-0.3,0.56-0.71,1-1.22,1.31c-0.52,0.31-1.1,0.46-1.74,0.46
	c-0.85,0-1.47-0.18-1.84-0.54c-0.37-0.36-0.56-0.96-0.56-1.79V21.23z M33,28.81v-0.48h1.54V15.43h-1.58v-0.41
	c0.55-0.01,1.1-0.04,1.64-0.07c0.54-0.03,1.08-0.08,1.61-0.14v13.52h1.58v0.48H33z M39.8,28.81v-0.48h1.54V15.43h-1.58v-0.41
	c0.55-0.01,1.1-0.04,1.64-0.07c0.54-0.03,1.08-0.08,1.61-0.14v13.52h1.58v0.48H39.8z M48.3,23.58h4.76v-0.21
	c0-0.85-0.17-1.46-0.52-1.84c-0.34-0.37-0.9-0.56-1.67-0.56c-0.8,0-1.41,0.22-1.84,0.65C48.61,22.06,48.36,22.71,48.3,23.58z
	 M48.3,24.17v0.62c0,1.39,0.18,2.36,0.54,2.9c0.36,0.55,0.98,0.83,1.86,0.83c0.75,0,1.38-0.2,1.9-0.6c0.53-0.4,0.88-0.96,1.07-1.69
	h0.46c-0.21,0.93-0.62,1.64-1.24,2.11c-0.62,0.47-1.43,0.71-2.45,0.71c-1.15,0-2.13-0.39-2.91-1.17c-0.79-0.77-1.18-1.73-1.18-2.85
	c0-1.24,0.4-2.29,1.2-3.14c0.81-0.86,1.78-1.29,2.95-1.29c1.09,0,1.95,0.3,2.58,0.92c0.63,0.61,0.99,1.5,1.1,2.65H48.3z
	 M56.24,28.81v-0.48h1.39v-7.09h-1.34v-0.44c0.54,0,1.06-0.02,1.56-0.05c0.5-0.04,0.97-0.08,1.4-0.13v2.05
	c0.34-0.67,0.72-1.17,1.13-1.5c0.41-0.33,0.85-0.5,1.32-0.5c0.39,0,0.69,0.09,0.89,0.28c0.21,0.19,0.31,0.45,0.31,0.8
	c0,0.26-0.08,0.47-0.24,0.63c-0.16,0.16-0.37,0.23-0.64,0.23c-0.24,0-0.44-0.08-0.62-0.26c-0.17-0.17-0.26-0.37-0.26-0.61
	c0-0.06,0.01-0.12,0.02-0.2c0.01-0.07,0.02-0.12,0.02-0.14c0-0.06-0.01-0.09-0.02-0.11c-0.01-0.02-0.04-0.03-0.06-0.03
	c-0.37,0-0.77,0.33-1.18,0.98c-0.41,0.66-0.62,1.33-0.62,2.02v4.07h1.53v0.48H56.24z M70.56,28.81v-0.52h1.52V15.53h-1.52v-0.52
	h4.16l2.91,10.21l3.11-10.21h4.06v0.52h-1.62v12.75h1.62v0.52h-5.14v-0.52h1.55V15.72h-0.08l-3.99,13.09h-0.52l-3.72-13.09h-0.16
	v12.57h1.56v0.52H70.56z M89.17,19.47l2.96-3.07c0.24-0.25,0.43-0.41,0.57-0.49c0.14-0.08,0.28-0.12,0.42-0.12
	c0.23,0,0.41,0.07,0.55,0.2c0.14,0.13,0.21,0.31,0.21,0.52c0,0.15-0.05,0.3-0.16,0.44c-0.11,0.14-0.27,0.28-0.48,0.42l-3.38,2.1
	H89.17z M88.92,24.82c0,1.52,0.15,2.53,0.46,3.05c0.31,0.51,0.84,0.77,1.6,0.77c0.75,0,1.28-0.27,1.6-0.82
	c0.31-0.55,0.47-1.54,0.47-2.98c0-1.53-0.15-2.55-0.46-3.05c-0.3-0.5-0.84-0.75-1.6-0.75c-0.76,0-1.3,0.27-1.61,0.8
	C89.07,22.37,88.92,23.36,88.92,24.82z M86.98,24.82c0-1.19,0.39-2.19,1.17-3C88.92,21,89.87,20.6,91,20.6c1.15,0,2.1,0.4,2.86,1.2
	c0.76,0.8,1.13,1.8,1.13,3c0,1.18-0.39,2.19-1.17,3.01c-0.78,0.82-1.73,1.24-2.83,1.24c-1.15,0-2.1-0.4-2.86-1.2
	C87.36,27.04,86.98,26.03,86.98,24.82z M97.65,28.81v-0.48h1.12v-7.09h-1.14v-0.44H98c0.43,0,0.84-0.02,1.23-0.05
	c0.4-0.04,0.77-0.08,1.12-0.14l0.01,2.34c0.3-0.77,0.71-1.35,1.24-1.75c0.52-0.4,1.15-0.59,1.87-0.59c0.73,0,1.3,0.2,1.71,0.58
	c0.41,0.39,0.62,0.94,0.62,1.64v5.5h1.09v0.48h-3.88v-0.48h1.19v-5.57c0-0.53-0.1-0.91-0.32-1.17c-0.21-0.25-0.54-0.38-0.98-0.38
	c-0.68,0-1.26,0.34-1.75,1.01c-0.49,0.68-0.74,1.5-0.74,2.47v3.63h1.11v0.48H97.65z M109.14,28.81v-0.48h1.41v-7.09h-1.32v-0.44h0.4
	c0.44,0,0.88-0.02,1.31-0.05c0.43-0.04,0.84-0.08,1.22-0.14v7.73h1.22v0.48H109.14z M110.38,16.51c0-0.29,0.1-0.53,0.3-0.73
	c0.2-0.2,0.45-0.3,0.74-0.3c0.28,0,0.53,0.1,0.73,0.3c0.2,0.2,0.3,0.44,0.3,0.72c0,0.29-0.1,0.53-0.3,0.74
	c-0.2,0.21-0.45,0.31-0.73,0.31c-0.29,0-0.54-0.1-0.74-0.31C110.48,17.04,110.38,16.79,110.38,16.51z M116.52,28.33V15.43h-1.09
	l0.01-0.42c0.38-0.02,0.77-0.05,1.17-0.08c0.4-0.03,0.92-0.07,1.55-0.13v13.52h1.17v0.48h-3.97v-0.48H116.52z M130.6,27.69
	c-0.27,0.42-0.67,0.75-1.21,1c-0.54,0.25-1.11,0.37-1.74,0.37c-0.71,0-1.27-0.17-1.69-0.51c-0.41-0.34-0.62-0.8-0.62-1.36
	c0-0.94,0.46-1.67,1.38-2.21c0.92-0.54,2.19-0.82,3.82-0.83v-1.97c0-0.4-0.14-0.7-0.41-0.89c-0.27-0.19-0.68-0.29-1.25-0.29
	c-0.44,0-0.83,0.08-1.17,0.23c-0.34,0.16-0.51,0.32-0.51,0.48c0,0.03,0.1,0.14,0.29,0.33c0.19,0.19,0.29,0.4,0.29,0.64
	c0,0.26-0.08,0.47-0.23,0.64c-0.16,0.16-0.36,0.24-0.6,0.24c-0.27,0-0.49-0.09-0.65-0.27c-0.16-0.18-0.23-0.42-0.23-0.72
	c0-0.57,0.31-1.04,0.92-1.42c0.61-0.37,1.41-0.56,2.38-0.56c1.03,0,1.75,0.16,2.16,0.49c0.42,0.33,0.63,0.91,0.63,1.74v4.58
	c0,0.32,0.03,0.53,0.09,0.63c0.06,0.1,0.17,0.15,0.33,0.15c0.17,0,0.33-0.07,0.46-0.21c0.14-0.14,0.23-0.31,0.28-0.53h0.34
	c-0.04,0.48-0.22,0.86-0.54,1.16c-0.32,0.29-0.71,0.44-1.18,0.44c-0.41,0-0.72-0.11-0.94-0.34
	C130.77,28.48,130.64,28.14,130.6,27.69z M130.55,24.61c-1.17,0-2.06,0.17-2.68,0.53c-0.62,0.35-0.93,0.86-0.93,1.53
	c0,0.48,0.14,0.86,0.43,1.15c0.29,0.29,0.67,0.43,1.15,0.43c0.59,0,1.08-0.15,1.46-0.46c0.38-0.31,0.57-0.71,0.57-1.2V24.61z
	 M137.15,28.1c-0.1-0.17-0.21-0.31-0.34-0.43c-0.21-0.19-0.46-0.31-0.75-0.36c-0.3-0.05-0.54-0.01-0.74,0.12
	c-0.2,0.13-0.32,0.33-0.36,0.6c-0.04,0.24,0.01,0.45,0.15,0.64c0.14,0.18,0.34,0.29,0.59,0.33c0.24,0.04,0.46-0.03,0.68-0.19
	c0.22-0.16,0.34-0.23,0.37-0.24c0.26-0.05,0.5,0.27,0.32,0.63c-2.65,5.4-11.25,1.09-11.8,0.84c-3.06-1.38-4.76-4.55-5.57-6.4
	l2.86-2.39h1.3v-0.46h-3.44v0.46h1.38l-3.56,2.95c1.76,6.75,15.43,11.3,18.73,6.04C137.37,29.61,137.58,28.82,137.15,28.1z
	 M4.35,28.81v-0.52h1.52V15.53H4.35v-0.52h4.16l2.91,10.21l3.11-10.21h4.06v0.52h-1.62v12.75h1.62v0.52h-5.14v-0.52h1.55V15.72
	h-0.08l-3.99,13.09H10.4L6.68,15.72H6.51v12.57h1.56v0.52H4.35z M46.88,43.1v-0.19h0.62v-4.59h-0.59v-0.19h2.03v0.19h-0.68v4.59
	h1.02c0.37,0,0.65-0.09,0.83-0.26c0.18-0.17,0.33-0.49,0.44-0.95h0.14l-0.08,1.4H46.88z M53.52,41.1h1.3L54.2,39.1L53.52,41.1z
	 M52.09,43.1v-0.19h0.59l1.69-4.9h0.19l1.58,4.9h0.52v0.19h-1.89v-0.19h0.61l-0.5-1.59h-1.44l-0.53,1.59h0.63v0.19H52.09z
	 M53.81,37.64l1.07-1.1c0.09-0.09,0.15-0.15,0.2-0.18c0.05-0.03,0.1-0.04,0.15-0.04c0.08,0,0.15,0.02,0.2,0.07
	c0.05,0.05,0.08,0.11,0.08,0.19c0,0.05-0.02,0.11-0.06,0.16c-0.04,0.05-0.1,0.1-0.17,0.15l-1.22,0.76H53.81z M59.57,40.58v2.33h0.66
	c0.41,0,0.7-0.08,0.85-0.24c0.15-0.16,0.23-0.46,0.23-0.89c0-0.43-0.09-0.74-0.26-0.92c-0.17-0.18-0.47-0.27-0.88-0.27H59.57z
	 M59.57,40.4h0.56c0.41,0,0.68-0.08,0.84-0.23c0.15-0.15,0.23-0.44,0.23-0.86c0-0.37-0.08-0.63-0.23-0.77
	c-0.15-0.14-0.44-0.21-0.87-0.21h-0.53V40.4z M58.29,43.1v-0.19h0.54v-4.59h-0.54v-0.19h1.9c0.57,0,1.01,0.1,1.31,0.29
	c0.3,0.2,0.45,0.48,0.45,0.86c0,0.31-0.11,0.57-0.32,0.77c-0.21,0.2-0.51,0.34-0.9,0.4v0.03c0.42,0.07,0.76,0.22,1.01,0.45
	c0.25,0.23,0.37,0.49,0.37,0.81c0,0.44-0.17,0.77-0.51,1.01c-0.34,0.24-0.82,0.35-1.45,0.35H58.29z M65.28,41.1h1.3l-0.63-1.99
	L65.28,41.1z M63.85,43.1v-0.19h0.59l1.69-4.9h0.19l1.58,4.9h0.52v0.19h-1.89v-0.19h0.61l-0.5-1.59h-1.44l-0.53,1.59h0.63v0.19
	H63.85z M65.56,37.64l1.07-1.1c0.09-0.09,0.15-0.15,0.2-0.18c0.05-0.03,0.1-0.04,0.15-0.04c0.08,0,0.15,0.02,0.2,0.07
	c0.05,0.05,0.08,0.11,0.08,0.19c0,0.05-0.02,0.11-0.06,0.16c-0.04,0.05-0.1,0.1-0.17,0.15l-1.22,0.76H65.56z M71.3,40.67h0.33
	c0.5,0,0.85-0.09,1.05-0.27c0.2-0.18,0.3-0.5,0.3-0.96c0-0.43-0.09-0.72-0.26-0.88c-0.17-0.15-0.53-0.23-1.08-0.23H71.3V40.67z
	 M70.02,43.1v-0.19h0.56v-4.59h-0.56v-0.19h1.72c0.69,0,1.2,0.11,1.53,0.32c0.33,0.21,0.5,0.53,0.5,0.97c0,0.47-0.18,0.82-0.55,1.07
	c-0.37,0.24-0.91,0.37-1.61,0.37H71.3v2.05h0.59v0.19H70.02z M77.58,43.22c-0.33,0-0.63-0.06-0.88-0.19
	c-0.25-0.13-0.48-0.32-0.69-0.59c-0.19-0.24-0.33-0.52-0.43-0.84c-0.1-0.32-0.15-0.65-0.15-1c0-0.34,0.05-0.66,0.15-0.95
	c0.1-0.29,0.24-0.56,0.44-0.8c0.22-0.27,0.46-0.48,0.72-0.61c0.26-0.13,0.54-0.2,0.85-0.2c0.3,0,0.57,0.06,0.81,0.18
	c0.24,0.12,0.47,0.3,0.68,0.54c0.21,0.25,0.38,0.54,0.49,0.85c0.11,0.32,0.17,0.66,0.17,1.02c0,0.35-0.05,0.69-0.16,1.01
	c-0.11,0.32-0.26,0.6-0.46,0.84c-0.2,0.25-0.43,0.44-0.67,0.56C78.19,43.16,77.9,43.22,77.58,43.22z M77.58,38.22
	c-0.48,0-0.81,0.19-1,0.59c-0.19,0.39-0.29,1.1-0.29,2.13c0,0.7,0.11,1.23,0.32,1.58c0.21,0.35,0.54,0.52,0.98,0.52
	c0.44,0,0.76-0.17,0.97-0.52c0.21-0.35,0.32-0.88,0.32-1.59c0-1.04-0.1-1.75-0.29-2.13C78.39,38.41,78.06,38.22,77.58,38.22z
	 M81.53,43.1v-0.19h0.62v-4.59h-0.59v-0.19h2.03v0.19h-0.68v4.59h1.02c0.37,0,0.65-0.09,0.83-0.26c0.18-0.17,0.33-0.49,0.44-0.95
	h0.14l-0.08,1.4H81.53z M88.18,41.1h1.3l-0.63-1.99L88.18,41.1z M86.74,43.1v-0.19h0.59l1.69-4.9h0.19l1.58,4.9h0.52v0.19h-1.89
	v-0.19h0.61l-0.5-1.59H88.1l-0.53,1.59h0.63v0.19H86.74z M88.46,37.64l1.07-1.1c0.09-0.09,0.15-0.15,0.2-0.18
	c0.05-0.03,0.1-0.04,0.15-0.04c0.08,0,0.15,0.02,0.2,0.07c0.05,0.05,0.08,0.11,0.08,0.19c0,0.05-0.02,0.11-0.06,0.16
	c-0.04,0.05-0.1,0.1-0.17,0.15l-1.22,0.76H88.46z M93.05,43.12h-0.13v-1.31h0.14c0.12,0.37,0.3,0.66,0.56,0.87
	C93.87,42.9,94.16,43,94.48,43c0.36,0,0.66-0.11,0.9-0.33c0.25-0.22,0.37-0.5,0.37-0.82c0-0.38-0.37-0.68-1.11-0.92
	c-0.06-0.02-0.1-0.03-0.13-0.04c-0.63-0.2-1.06-0.41-1.27-0.62c-0.21-0.21-0.31-0.5-0.31-0.86c0-0.41,0.13-0.74,0.4-1
	c0.27-0.26,0.62-0.39,1.05-0.39c0.32,0,0.62,0.08,0.9,0.25c0.05,0.03,0.08,0.05,0.09,0.05c0.01,0,0.03-0.01,0.04-0.01
	c0.01-0.01,0.02-0.02,0.03-0.03l0.14-0.16h0.16v1.14H95.6c-0.12-0.36-0.29-0.62-0.51-0.8c-0.22-0.18-0.48-0.27-0.8-0.27
	c-0.29,0-0.53,0.09-0.72,0.26c-0.2,0.17-0.29,0.38-0.29,0.62c0,0.2,0.08,0.37,0.23,0.5c0.15,0.13,0.4,0.24,0.74,0.33
	c0.05,0.01,0.12,0.03,0.22,0.06c0.57,0.15,0.95,0.3,1.13,0.44c0.16,0.12,0.29,0.28,0.37,0.47c0.08,0.19,0.13,0.4,0.13,0.63
	c0,0.51-0.15,0.92-0.46,1.23c-0.3,0.3-0.71,0.46-1.23,0.46c-0.36,0-0.69-0.1-0.99-0.3c-0.05-0.03-0.08-0.05-0.08-0.05
	c-0.01,0-0.02,0-0.03,0.01c-0.01,0.01-0.02,0.02-0.03,0.03L93.05,43.12z"/>
</svg>
