<?xml version="1.0" encoding="utf-8"?>
<!-- Generator: Adobe Illustrator 24.2.3, SVG Export Plug-In . SVG Version: 6.00 Build 0)  -->
<svg version="1.1" id="Réteg_1" xmlns="http://www.w3.org/2000/svg" xmlns:xlink="http://www.w3.org/1999/xlink" x="0px" y="0px"
	 viewBox="0 0 170.08 42.52" style="enable-background:new 0 0 170.08 42.52;" xml:space="preserve">
<style type="text/css">
	.st0{fill-rule:evenodd;clip-rule:evenodd;fill:#55575B;}
</style>
<path class="st0" d="M23.17,7.17c0-0.35,0.13-0.65,0.38-0.91c0.26-0.25,0.56-0.38,0.9-0.38c0.35,0,0.65,0.12,0.91,0.38
	c0.26,0.25,0.39,0.55,0.39,0.91c0,0.36-0.12,0.67-0.38,0.93c-0.25,0.25-0.56,0.38-0.92,0.38c-0.36,0-0.67-0.12-0.92-0.37
	C23.29,7.86,23.17,7.55,23.17,7.17 M28.12,7.17c0-0.35,0.13-0.65,0.38-0.91c0.26-0.25,0.55-0.38,0.89-0.38
	c0.35,0,0.67,0.12,0.92,0.38c0.26,0.25,0.39,0.55,0.39,0.91c0,0.36-0.12,0.67-0.38,0.93c-0.25,0.25-0.56,0.38-0.94,0.38
	c-0.36,0-0.66-0.12-0.91-0.37C28.25,7.86,28.12,7.55,28.12,7.17z M22.81,11.44h-1.52v-0.56h0.59c0.62,0,1.15-0.02,1.61-0.06
	c0.46-0.04,0.87-0.1,1.24-0.18v7.71c0,0.9,0.13,1.47,0.39,1.74c0.26,0.26,0.75,0.39,1.46,0.39c0.84,0,1.55-0.34,2.13-1.02
	c0.58-0.69,0.87-1.55,0.87-2.6v-5.42h-1.55v-0.56h0.46c0.52,0,1.05-0.02,1.58-0.07c0.53-0.04,1.05-0.1,1.55-0.18l0.01,9.8h1.4v0.61
	h-0.56c-0.58,0-1.1,0.02-1.56,0.06c-0.46,0.04-0.89,0.1-1.29,0.18v-2.21c-0.38,0.71-0.9,1.26-1.55,1.65
	c-0.66,0.39-1.39,0.59-2.2,0.59c-1.08,0-1.86-0.23-2.34-0.68c-0.47-0.46-0.71-1.21-0.71-2.27V11.44z M36.68,21.04v-0.61h1.95V4.09
	h-2V3.57c0.7-0.02,1.4-0.05,2.08-0.09c0.68-0.04,1.37-0.1,2.04-0.18v17.14h2v0.61H36.68z M45.3,21.04v-0.61h1.95V4.09h-2V3.57
	c0.7-0.02,1.4-0.05,2.08-0.09c0.68-0.04,1.37-0.1,2.04-0.18v17.14h2v0.61H45.3z M56.07,14.42h6.04v-0.26c0-1.07-0.22-1.85-0.66-2.33
	c-0.44-0.47-1.14-0.71-2.12-0.71c-1.01,0-1.79,0.28-2.33,0.83C56.47,12.49,56.15,13.32,56.07,14.42z M56.08,15.16v0.78
	c0,1.76,0.23,2.99,0.68,3.68c0.45,0.7,1.24,1.05,2.36,1.05c0.94,0,1.75-0.25,2.41-0.76c0.67-0.51,1.12-1.22,1.36-2.14h0.59
	c-0.26,1.18-0.78,2.08-1.57,2.67c-0.79,0.6-1.82,0.9-3.11,0.9c-1.46,0-2.7-0.49-3.69-1.48c-1-0.98-1.49-2.19-1.49-3.62
	c0-1.57,0.51-2.9,1.53-3.98c1.02-1.09,2.26-1.63,3.74-1.63c1.38,0,2.47,0.39,3.27,1.16c0.79,0.78,1.26,1.9,1.39,3.36H56.08z
	 M66.14,21.04v-0.61h1.76v-8.99h-1.7v-0.56c0.68,0,1.34-0.02,1.98-0.07c0.63-0.04,1.22-0.1,1.78-0.17v2.6
	c0.43-0.85,0.91-1.49,1.43-1.91c0.52-0.42,1.08-0.63,1.68-0.63c0.5,0,0.87,0.12,1.13,0.35c0.26,0.23,0.39,0.57,0.39,1.02
	c0,0.33-0.1,0.59-0.31,0.79c-0.2,0.2-0.47,0.3-0.81,0.3c-0.3,0-0.56-0.11-0.79-0.32c-0.22-0.22-0.33-0.47-0.33-0.77
	c0-0.07,0.01-0.15,0.03-0.25c0.02-0.09,0.03-0.16,0.03-0.18c0-0.07-0.01-0.12-0.03-0.14c-0.02-0.03-0.04-0.04-0.08-0.04
	c-0.47,0-0.98,0.42-1.5,1.25c-0.52,0.83-0.79,1.69-0.79,2.56v5.16h1.94v0.61H66.14z M84.29,21.04v-0.66h1.92V4.21h-1.92V3.55h5.28
	l3.69,12.94L97.2,3.55h5.15v0.66h-2.05v16.17h2.05v0.66h-6.52v-0.66h1.96V4.45h-0.1l-5.06,16.59h-0.66L87.25,4.45h-0.21v15.93h1.97
	v0.66H84.29z M107.89,9.21l3.76-3.89c0.3-0.31,0.54-0.52,0.72-0.63c0.18-0.1,0.35-0.16,0.53-0.16c0.29,0,0.52,0.08,0.7,0.25
	c0.18,0.17,0.27,0.39,0.27,0.66c0,0.19-0.07,0.38-0.2,0.56c-0.14,0.18-0.34,0.36-0.61,0.53l-4.29,2.67H107.89z M107.57,15.99
	c0,1.93,0.19,3.21,0.59,3.87c0.39,0.65,1.06,0.98,2.03,0.98c0.95,0,1.63-0.35,2.02-1.04c0.4-0.7,0.6-1.96,0.6-3.78
	c0-1.94-0.19-3.23-0.58-3.87c-0.39-0.63-1.06-0.95-2.02-0.95c-0.97,0-1.65,0.34-2.05,1.02C107.77,12.88,107.57,14.14,107.57,15.99z
	 M105.11,15.99c0-1.51,0.49-2.78,1.48-3.81c0.98-1.03,2.19-1.55,3.62-1.55c1.46,0,2.66,0.51,3.62,1.52
	c0.96,1.01,1.44,2.28,1.44,3.81c0,1.5-0.5,2.77-1.49,3.81c-0.99,1.04-2.19,1.57-3.59,1.57c-1.46,0-2.67-0.51-3.63-1.53
	C105.59,18.8,105.11,17.52,105.11,15.99z M118.63,21.04v-0.61h1.42v-8.99h-1.44v-0.56h0.48c0.54,0,1.06-0.02,1.56-0.07
	c0.5-0.04,0.98-0.1,1.42-0.18l0.01,2.96c0.38-0.98,0.91-1.72,1.57-2.21c0.67-0.5,1.45-0.75,2.37-0.75c0.93,0,1.65,0.25,2.17,0.74
	c0.52,0.49,0.78,1.19,0.78,2.08v6.98h1.39v0.61h-4.92v-0.61h1.51v-7.06c0-0.67-0.13-1.16-0.4-1.48c-0.27-0.32-0.68-0.48-1.25-0.48
	c-0.86,0-1.6,0.43-2.22,1.29c-0.63,0.86-0.94,1.9-0.94,3.13v4.6h1.4v0.61H118.63z M133.21,21.04v-0.61H135v-8.99h-1.68v-0.56h0.51
	c0.56,0,1.11-0.02,1.66-0.07c0.55-0.04,1.06-0.1,1.55-0.18v9.8h1.55v0.61H133.21z M134.78,5.45c0-0.36,0.13-0.67,0.39-0.92
	c0.26-0.25,0.57-0.38,0.94-0.38c0.36,0,0.67,0.13,0.93,0.38c0.26,0.26,0.39,0.56,0.39,0.92c0,0.36-0.13,0.67-0.39,0.94
	c-0.26,0.26-0.57,0.39-0.93,0.39c-0.37,0-0.68-0.13-0.94-0.39C134.9,6.12,134.78,5.81,134.78,5.45z M142.56,20.43V4.09h-1.39
	l0.01-0.53c0.48-0.03,0.98-0.06,1.49-0.1c0.51-0.04,1.16-0.09,1.97-0.16v17.14h1.48v0.61h-5.03v-0.61H142.56z M160.41,19.63
	c-0.34,0.53-0.85,0.95-1.53,1.27c-0.68,0.32-1.41,0.47-2.2,0.47c-0.9,0-1.61-0.22-2.14-0.65c-0.52-0.43-0.79-1.01-0.79-1.73
	c0-1.19,0.58-2.12,1.75-2.81c1.17-0.68,2.78-1.03,4.84-1.05v-2.5c0-0.51-0.17-0.89-0.51-1.13c-0.34-0.24-0.86-0.36-1.58-0.36
	c-0.56,0-1.06,0.1-1.49,0.3c-0.43,0.2-0.64,0.4-0.64,0.61c0,0.04,0.12,0.17,0.37,0.41c0.24,0.24,0.37,0.51,0.37,0.81
	c0,0.33-0.1,0.6-0.3,0.81c-0.2,0.21-0.46,0.31-0.77,0.31c-0.35,0-0.62-0.11-0.82-0.34c-0.2-0.23-0.3-0.53-0.3-0.91
	c0-0.72,0.39-1.32,1.17-1.8c0.78-0.47,1.78-0.71,3.01-0.71c1.3,0,2.21,0.2,2.74,0.62c0.53,0.41,0.79,1.15,0.79,2.2v5.81
	c0,0.41,0.04,0.67,0.12,0.8c0.08,0.12,0.22,0.19,0.42,0.19c0.22,0,0.41-0.09,0.59-0.27c0.17-0.18,0.29-0.4,0.35-0.67h0.43
	c-0.05,0.61-0.28,1.1-0.68,1.47c-0.4,0.37-0.9,0.56-1.5,0.56c-0.51,0-0.91-0.14-1.2-0.43C160.62,20.63,160.46,20.2,160.41,19.63z
	 M160.34,15.72c-1.48,0-2.61,0.22-3.4,0.67c-0.79,0.44-1.18,1.09-1.18,1.94c0,0.61,0.18,1.09,0.55,1.46
	c0.36,0.36,0.85,0.55,1.45,0.55c0.75,0,1.37-0.2,1.85-0.59c0.48-0.39,0.72-0.9,0.72-1.52V15.72z M168.72,20.14
	c-0.13-0.22-0.27-0.4-0.43-0.54c-0.27-0.25-0.58-0.4-0.94-0.45c-0.38-0.06-0.69-0.01-0.94,0.15c-0.25,0.16-0.41,0.42-0.46,0.76
	c-0.05,0.31,0.01,0.58,0.19,0.81c0.17,0.23,0.43,0.37,0.75,0.42c0.3,0.05,0.59-0.03,0.86-0.24c0.28-0.21,0.43-0.3,0.47-0.3
	c0.33-0.06,0.63,0.34,0.4,0.8c-3.36,6.84-14.27,1.38-14.96,1.07c-3.89-1.74-6.03-5.76-7.06-8.11l3.62-3.03h1.65v-0.59h-4.37v0.59
	h1.75l-4.52,3.74c2.23,8.55,19.57,14.33,23.75,7.66C168.99,22.06,169.26,21.06,168.72,20.14z M0.35,21.04v-0.66h1.92V4.21H0.35V3.55
	h5.28l3.69,12.94l3.94-12.94h5.15v0.66h-2.05v16.17h2.05v0.66h-6.52v-0.66h1.96V4.45h-0.1L8.68,21.04H8.02L3.31,4.45H3.1v15.93h1.97
	v0.66H0.35z M54.28,39.16v-0.24h0.79v-5.82h-0.75v-0.24h2.58v0.24h-0.86v5.82h1.29c0.47,0,0.83-0.11,1.05-0.33
	c0.23-0.22,0.41-0.62,0.55-1.21h0.18L59,39.16H54.28z M62.7,36.62h1.65l-0.8-2.52L62.7,36.62z M60.88,39.16v-0.24h0.75l2.15-6.21
	h0.24l2,6.21h0.66v0.24h-2.39v-0.24h0.78l-0.63-2.02h-1.82l-0.67,2.02h0.79v0.24H60.88z M63.06,32.24l1.35-1.4
	c0.11-0.11,0.19-0.19,0.26-0.22c0.07-0.04,0.13-0.06,0.19-0.06c0.1,0,0.19,0.03,0.25,0.09c0.06,0.06,0.1,0.14,0.1,0.24
	c0,0.07-0.02,0.14-0.07,0.2c-0.05,0.07-0.12,0.13-0.22,0.19l-1.54,0.96H63.06z M70.36,35.97v2.95h0.83c0.53,0,0.88-0.1,1.07-0.3
	c0.19-0.2,0.29-0.58,0.29-1.13c0-0.55-0.11-0.94-0.33-1.17c-0.22-0.23-0.59-0.34-1.12-0.34H70.36z M70.36,35.73h0.71
	c0.52,0,0.87-0.1,1.06-0.29c0.19-0.19,0.29-0.56,0.29-1.09c0-0.47-0.1-0.8-0.29-0.98c-0.19-0.18-0.56-0.27-1.1-0.27h-0.67V35.73z
	 M68.74,39.16v-0.24h0.69v-5.82h-0.69v-0.24h2.41c0.73,0,1.28,0.12,1.66,0.37c0.38,0.25,0.57,0.61,0.57,1.08
	c0,0.39-0.13,0.72-0.4,0.98c-0.27,0.26-0.65,0.43-1.13,0.51v0.04c0.53,0.09,0.96,0.28,1.27,0.57c0.31,0.29,0.47,0.63,0.47,1.02
	c0,0.55-0.22,0.98-0.65,1.28c-0.43,0.3-1.04,0.45-1.84,0.45H68.74z M77.6,36.62h1.65l-0.8-2.52L77.6,36.62z M75.78,39.16v-0.24h0.75
	l2.15-6.21h0.24l2,6.21h0.66v0.24h-2.39v-0.24h0.78l-0.63-2.02h-1.82l-0.67,2.02h0.79v0.24H75.78z M77.95,32.24l1.35-1.4
	c0.11-0.11,0.19-0.19,0.26-0.22c0.07-0.04,0.13-0.06,0.19-0.06c0.1,0,0.19,0.03,0.25,0.09c0.06,0.06,0.1,0.14,0.1,0.24
	c0,0.07-0.02,0.14-0.07,0.2c-0.05,0.07-0.12,0.13-0.22,0.19l-1.54,0.96H77.95z M85.23,36.08h0.42c0.63,0,1.07-0.12,1.33-0.35
	c0.26-0.23,0.39-0.64,0.39-1.22c0-0.55-0.11-0.92-0.33-1.11c-0.22-0.2-0.68-0.29-1.37-0.29h-0.44V36.08z M83.61,39.16v-0.24h0.71
	v-5.82h-0.71v-0.24h2.18c0.87,0,1.52,0.13,1.94,0.4c0.42,0.27,0.63,0.68,0.63,1.23c0,0.59-0.23,1.04-0.7,1.35
	c-0.47,0.31-1.15,0.46-2.04,0.46h-0.39v2.6h0.75v0.24H83.61z M93.2,39.31c-0.42,0-0.8-0.08-1.11-0.24
	c-0.32-0.16-0.61-0.41-0.88-0.75c-0.24-0.31-0.42-0.66-0.55-1.06c-0.13-0.4-0.19-0.83-0.19-1.27c0-0.43,0.06-0.83,0.19-1.2
	c0.12-0.37,0.31-0.71,0.55-1.01c0.28-0.35,0.59-0.6,0.92-0.77c0.33-0.17,0.69-0.25,1.07-0.25c0.37,0,0.72,0.07,1.03,0.22
	c0.31,0.15,0.59,0.38,0.86,0.68c0.27,0.32,0.48,0.68,0.62,1.08c0.14,0.4,0.22,0.83,0.22,1.29c0,0.45-0.07,0.87-0.2,1.28
	c-0.14,0.41-0.33,0.76-0.58,1.07c-0.26,0.32-0.54,0.56-0.85,0.71C93.96,39.24,93.6,39.31,93.2,39.31z M93.2,32.97
	c-0.6,0-1.03,0.25-1.27,0.74c-0.25,0.5-0.37,1.4-0.37,2.7c0,0.89,0.14,1.56,0.4,2c0.27,0.44,0.68,0.66,1.24,0.66
	c0.55,0,0.96-0.22,1.23-0.66c0.27-0.44,0.4-1.11,0.4-2.01c0-1.32-0.12-2.22-0.36-2.7C94.22,33.22,93.8,32.97,93.2,32.97z
	 M98.21,39.16v-0.24h0.79v-5.82h-0.75v-0.24h2.58v0.24h-0.86v5.82h1.29c0.47,0,0.82-0.11,1.05-0.33c0.23-0.22,0.41-0.62,0.55-1.21
	h0.18l-0.11,1.77H98.21z M106.63,36.62h1.65l-0.8-2.52L106.63,36.62z M104.81,39.16v-0.24h0.75l2.15-6.21h0.24l2,6.21h0.66v0.24
	h-2.39v-0.24h0.77l-0.63-2.02h-1.82l-0.67,2.02h0.79v0.24H104.81z M106.98,32.24l1.35-1.4c0.11-0.11,0.19-0.19,0.26-0.22
	c0.07-0.04,0.13-0.06,0.19-0.06c0.1,0,0.19,0.03,0.25,0.09c0.06,0.06,0.1,0.14,0.1,0.24c0,0.07-0.02,0.14-0.07,0.2
	c-0.05,0.07-0.12,0.13-0.22,0.19l-1.54,0.96H106.98z M112.8,39.19h-0.16v-1.66h0.18c0.15,0.47,0.39,0.83,0.71,1.1
	c0.32,0.27,0.69,0.4,1.09,0.4c0.45,0,0.83-0.14,1.14-0.42c0.31-0.28,0.47-0.63,0.47-1.04c0-0.48-0.47-0.87-1.41-1.16
	c-0.08-0.02-0.13-0.04-0.17-0.05c-0.8-0.26-1.34-0.52-1.6-0.79c-0.26-0.27-0.4-0.63-0.4-1.1c0-0.52,0.17-0.94,0.51-1.26
	c0.34-0.33,0.78-0.49,1.33-0.49c0.41,0,0.78,0.1,1.14,0.31c0.07,0.04,0.1,0.06,0.12,0.06c0.02,0,0.03-0.01,0.05-0.02
	c0.01-0.01,0.03-0.02,0.04-0.04l0.18-0.2h0.2v1.44h-0.17c-0.15-0.45-0.37-0.79-0.64-1.02c-0.28-0.23-0.61-0.34-1.01-0.34
	c-0.36,0-0.67,0.11-0.91,0.33c-0.25,0.22-0.37,0.48-0.37,0.79c0,0.26,0.1,0.47,0.29,0.64c0.19,0.16,0.5,0.3,0.94,0.42
	c0.06,0.02,0.16,0.04,0.28,0.08c0.72,0.19,1.2,0.38,1.44,0.56c0.2,0.16,0.36,0.36,0.47,0.59c0.11,0.24,0.16,0.5,0.16,0.8
	c0,0.65-0.19,1.17-0.58,1.56c-0.38,0.39-0.9,0.58-1.56,0.58c-0.46,0-0.88-0.13-1.26-0.38c-0.06-0.04-0.1-0.06-0.11-0.06
	c-0.01,0-0.02,0-0.04,0.01c-0.01,0.01-0.03,0.02-0.04,0.04L112.8,39.19z"/>
</svg>
